<?xml version="1.0" encoding="UTF-8" standalone="no"?>
<svg
   xmlns:dc="http://purl.org/dc/elements/1.1/"
   xmlns:cc="http://creativecommons.org/ns#"
   xmlns:rdf="http://www.w3.org/1999/02/22-rdf-syntax-ns#"
   xmlns:svg="http://www.w3.org/2000/svg"
   xmlns="http://www.w3.org/2000/svg"
   xmlns:sodipodi="http://sodipodi.sourceforge.net/DTD/sodipodi-0.dtd"
   xmlns:inkscape="http://www.inkscape.org/namespaces/inkscape"
   width="750"
   height="750"
   viewBox="0 0 198.43749 198.43751"
   version="1.1"
   id="svg8"
   sodipodi:docname="auraflip.svg"
   inkscape:export-filename="D:\aura\src\assets\logos\pools\auraflip.png"
   inkscape:export-xdpi="96"
   inkscape:export-ydpi="96"
   inkscape:version="1.0.2 (e86c870879, 2021-01-15, custom)">
  <sodipodi:namedview
     pagecolor="#ffffff"
     bordercolor="#666666"
     borderopacity="1"
     objecttolerance="10"
     gridtolerance="10"
     guidetolerance="10"
     inkscape:pageopacity="0"
     inkscape:pageshadow="2"
     inkscape:window-width="1920"
     inkscape:window-height="1017"
     id="namedview840"
     showgrid="false"
     inkscape:zoom="0.23800833"
     inkscape:cx="142.29677"
     inkscape:cy="1207.685"
     inkscape:window-x="-8"
     inkscape:window-y="32"
     inkscape:window-maximized="1"
     inkscape:current-layer="svg8"
     inkscape:document-rotation="0" />
  <defs
     id="defs2" />
  <metadata
     id="metadata5">
    <rdf:RDF>
      <cc:Work
         rdf:about="">
        <dc:format>image/svg+xml</dc:format>
        <dc:type
           rdf:resource="http://purl.org/dc/dcmitype/StillImage" />
        <dc:title />
      </cc:Work>
    </rdf:RDF>
  </metadata>
  <g
     id="g4055">
    <g
       id="g2106"
       transform="translate(-9.7410791,33.072914)">
      <circle
         style="fill:#2c2c2c;fill-opacity:1;fill-rule:evenodd;stroke:#ffffff;stroke-width:7.64378;stroke-linecap:round;stroke-miterlimit:4;stroke-dasharray:none;stroke-opacity:1"
         id="path833-9"
         cx="66.145836"
         cy="66.145836"
         r="52.582867" />
      <g
         id="g904"
         transform="matrix(1.266826,0,0,1.266826,-17.649427,-16.391378)">
        <path
           style="fill:none;fill-rule:evenodd;stroke:#ffffff;stroke-width:6.92884;stroke-linecap:round;stroke-miterlimit:4;stroke-dasharray:none;stroke-opacity:1"
           id="path835-4"
           d="m 47.253001,47.058878 9.446416,10e-7 9.446415,18.450626 9.446415,-18.450626 9.446416,-10e-7 -9.446418,16.361671 -9.446413,16.361672 -9.446413,-16.361672 z" />
        <path
           id="path837-1"
           style="fill:#980042;fill-opacity:1;fill-rule:evenodd;stroke:#ed89ff;stroke-width:6.13529;stroke-linecap:round;stroke-miterlimit:4;stroke-dasharray:none;stroke-opacity:1"
           d="m 71.504214,61.070985 c 1.787631,-3.09955 3.57945,-6.197978 5.368691,-9.297095 L 66.144223,54.501373 55.415542,51.77389 66.145191,70.352615 Z" />
      </g>
    </g>
    <g
       id="g4029"
       transform="translate(5.0641458)">
      <circle
         style="fill:#2b2e63;fill-opacity:1;fill-rule:evenodd;stroke:#ffffff;stroke-width:7.64378;stroke-linecap:round;stroke-miterlimit:4;stroke-dasharray:none;stroke-opacity:1"
         id="path833-2"
         cx="136.9686"
         cy="99.21875"
         r="52.582867" />
      <g
         id="g898"
         transform="matrix(2.3929105,0,0,2.3929105,98.643231,60.980972)">
        <path
           fill="#2b2e63"
           d="M 18.73,5.31 A 4.33,4.33 0 0 1 19.57,4.2 5.16,5.16 0 0 1 22.45,3.07 5.17,5.17 0 0 1 21,5.82 4.22,4.22 0 0 1 19.45,6.68 3.92,3.92 0 0 0 18.5,6.43 c 0,-0.11 0,-0.23 -0.05,-0.34 v 0 c 0,0 0,-0.09 0,-0.14 a 5.11,5.11 0 0 1 0.28,-0.64 z m 0.54,2.33 A 2.81,2.81 0 1 1 17.73,7.39 h 0.35 a 2.69,2.69 0 0 1 1.19,0.25 z M 15.62,1.17 A 4.56,4.56 0 0 1 17.49,3 4,4 0 0 1 17.83,4.71 3.69,3.69 0 0 0 15.7,3.22 5,5 0 0 1 15.62,1.17 Z M 11.8,8.25 a 2.84,2.84 0 0 1 2.89,0.25 3.69,3.69 0 0 0 -0.41,1.71 3.84,3.84 0 0 0 0.89,2.45 2.81,2.81 0 0 1 -2.12,1 2.85,2.85 0 0 1 -2.84,-2.84 2.82,2.82 0 0 1 1.59,-2.57 z M 4,12.2 a 8.06,8.06 0 0 1 2.72,-1.61 22.64,22.64 0 0 1 2.65,-0.81 3.73,3.73 0 0 0 -0.14,1 3.81,3.81 0 0 0 6.65,2.53 3.87,3.87 0 0 0 2.19,0.69 3.81,3.81 0 0 0 3.81,-3.8 4.48,4.48 0 0 0 -0.06,-0.63 14.36,14.36 0 0 1 5.27,2 4.78,4.78 0 0 1 1.78,1.83 2.86,2.86 0 0 1 0.26,1 1.91,1.91 0 0 1 -0.33,1.24 l -0.23,0.27 v 0 0 c -0.18,0.16 -0.38,0.31 -0.61,0.48 A 3.27,3.27 0 0 0 26.58,18 4,4 0 0 0 26.47,19 c 0,0.46 0,0.74 -0.21,0.89 -0.21,0.15 -0.72,0 -1,-0.28 l -0.09,-0.12 a 1.69,1.69 0 0 0 -0.88,-0.58 1.09,1.09 0 0 0 -0.87,0.22 2,2 0 0 0 -0.66,1.4 c 0,0.29 0,0.59 0,0.89 a 4.06,4.06 0 0 1 -0.1,1.54 1.3,1.3 0 0 1 -0.08,0.17 c -0.08,0.15 -0.17,0.25 -0.25,0.26 -0.08,0.01 -0.25,-0.05 -0.49,-0.27 a 3.37,3.37 0 0 1 -0.76,-1.19 c -0.34,-1.28 -1.07,-2 -1.93,-1.9 a 1.63,1.63 0 0 0 -1.3,1.08 3.83,3.83 0 0 0 -0.19,1.38 V 27 A 2,2 0 0 1 17.18,28.61 0.57,0.57 0 0 1 16.7,28.72 0.83,0.83 0 0 1 16.14,28.3 3.55,3.55 0 0 1 15.85,27 c -0.07,-1 -0.12,-2 -0.18,-3.06 0,-0.71 -0.06,-1.4 -0.07,-2.09 A 3.09,3.09 0 0 0 15.32,20.4 1.4,1.4 0 0 0 13.7,19.64 1.54,1.54 0 0 0 12.89,20.39 4.24,4.24 0 0 0 12.47,22 4.88,4.88 0 0 1 12.36,22.7 c -0.11,0.56 -0.48,1.17 -0.94,1.13 -0.46,-0.04 -0.76,-0.54 -0.84,-1 a 5,5 0 0 1 0,-1 6.27,6.27 0 0 0 0,-1.14 A 2.06,2.06 0 0 0 8.82,18.8 2.61,2.61 0 0 0 7.27,19.44 L 7.12,19.55 C 6.81,19.77 6.4,19.94 6.18,19.79 5.96,19.64 5.97,19.43 5.9,19.01 A 4.34,4.34 0 0 0 5.76,18.35 4,4 0 0 0 4.24,16.54 L 4,16.41 A 2.45,2.45 0 0 1 3,14.57 3.17,3.17 0 0 1 4,12.2 Z m 16.64,10.9 h -0.05 l -0.38,0.06 H 19.82 L 19,23.25 h -0.37 v -0.89 a 3.26,3.26 0 0 1 0.12,-1 0.75,0.75 0 0 1 0.49,-0.47 c 0.41,0 0.74,0.57 0.91,1.19 a 3.75,3.75 0 0 0 0.49,1.02 z m -6,0.32 h -0.14 -0.66 -0.45 -0.2 c 0.05,-0.14 0.09,-0.28 0.13,-0.41 0.04,-0.13 0.08,-0.54 0.11,-0.8 a 3.88,3.88 0 0 1 0.31,-1.29 0.64,0.64 0 0 1 0.27,-0.29 c 0.14,0 0.35,0.1 0.46,0.29 a 2.55,2.55 0 0 1 0.16,1 c 0.01,0.45 0.04,0.97 0.05,1.5 z M 3.19,17 3.4,17.18 3.57,17.32 a 3.07,3.07 0 0 1 1.2,1.33 4.66,4.66 0 0 1 0.11,0.52 1.87,1.87 0 0 0 0.69,1.43 1.79,1.79 0 0 0 2,-0.25 l 0.17,-0.12 a 1.78,1.78 0 0 1 1,-0.46 c 0.43,0 0.76,0.56 0.83,1.06 a 6.17,6.17 0 0 1 0,1 c 0,0.31 0,0.64 0,1 A 17.67,17.67 0 0 1 5.86,21.56 6.94,6.94 0 0 1 3.5,19.72 2.49,2.49 0 0 1 2.85,18.13 2.25,2.25 0 0 1 3.19,17 Z m 0,3.82 v 0 l 0.4,0.36 0.1,0.07 a 3.36,3.36 0 0 0 0.43,0.31 l 0.07,0.06 c 0.16,0.11 0.34,0.22 0.53,0.33 l 0.13,0.07 c 0.19,0.11 0.39,0.22 0.6,0.32 a 18,18 0 0 0 4.47,1.47 1.81,1.81 0 0 0 1.46,1 v 0 a 1.67,1.67 0 0 0 1.21,-0.56 h 0.21 0.45 0.48 l 0.71,0.05 h 0.24 c 0,0.93 0.1,1.81 0.16,2.64 0,0.06 0,0.13 0,0.2 h -0.05 -0.5 -0.53 -0.26 q -0.36,0 -0.72,-0.06 l -1,-0.11 -0.48,-0.08 a 3.81,3.81 0 0 1 -0.47,-0.07 l -0.34,-0.07 c -0.34,-0.06 -0.67,-0.12 -1,-0.21 L 9.06,26.43 A 3,3 0 0 1 8.68,26.34 L 8.31,26.23 7.84,26.09 7.55,26 Q 7.1,25.85 6.68,25.67 L 6.51,25.6 H 6.41 6.33 l -0.1,-0.05 a 0.2,0.2 0 0 1 -0.08,0 v 0 L 5.89,25.42 5.56,25.25 5.27,25.09 C 5.07,24.98 4.89,24.85 4.71,24.73 L 4.5,24.59 4.21,24.35 A 2.45,2.45 0 0 1 4,24 0.42,0.42 0 0 1 3.87,23.89 2.91,2.91 0 0 1 3.53,23.51 2.53,2.53 0 0 1 2.88,21.92 2.21,2.21 0 0 1 3.17,20.81 Z M 16,31 C 8.88,31 2.85,28.59 2.85,25.7 a 2.24,2.24 0 0 1 0.32,-1.11 l 0.06,0.05 v 0 a 0.29,0.29 0 0 1 0.08,0.07 l 0.24,0.2 c 0.1,0.09 0.21,0.17 0.3,0.24 v 0 l 0.21,0.15 c 0.2,0.14 0.4,0.27 0.62,0.4 a 2.19,2.19 0 0 0 0.33,0.18 2,2 0 0 0 0.36,0.18 2.15,2.15 0 0 0 0.26,0.14 l 0.13,0.06 0.13,0.06 h 0.06 l 0.15,0.06 0.16,0.07 c 0.29,0.13 0.61,0.25 0.92,0.36 l 0.4,0.13 c 0.16,0.06 0.32,0.1 0.49,0.15 l 0.39,0.11 a 3.25,3.25 0 0 0 0.42,0.11 l 0.43,0.11 1.06,0.22 0.34,0.06 a 4.53,4.53 0 0 0 0.49,0.08 4.44,4.44 0 0 0 0.49,0.07 c 0.34,0.06 0.68,0.09 1,0.13 l 0.75,0.06 h 0.26 v 0 h 0.55 0.5 0.25 a 2.34,2.34 0 0 0 0.18,0.48 1.77,1.77 0 0 0 1.22,0.94 1.86,1.86 0 0 0 0.34,0 1.49,1.49 0 0 0 1,-0.34 2.17,2.17 0 0 0 0.72,-1.21 h 0.19 0.47 0.37 L 20,28 l 0.46,-0.07 0.59,-0.08 0.59,-0.11 c 0.5,-0.1 1,-0.2 1.41,-0.31 l 0.37,-0.11 0.39,-0.1 c 0.55,-0.16 1.07,-0.34 1.53,-0.52 a 2.87,2.87 0 0 0 0.39,-0.16 l 0.74,-0.33 0.34,-0.17 v 0 l 0.33,-0.18 c 0.21,-0.12 0.4,-0.24 0.58,-0.36 a 0.72,0.72 0 0 0 0.15,-0.11 l 0.38,-0.27 0.14,-0.11 a 4.89,4.89 0 0 0 0.41,-0.37 2.21,2.21 0 0 1 0.32,1.11 C 29.15,28.59 23.13,31 16,31 Z M 28.51,23.48 A 6.48,6.48 0 0 1 26.68,25 l -0.29,0.17 -0.32,0.15 -0.69,0.32 -0.37,0.14 a 14.4,14.4 0 0 1 -1.45,0.5 l -0.39,0.1 a 1.69,1.69 0 0 1 -0.34,0.09 c -0.42,0.12 -0.88,0.22 -1.36,0.31 l -0.55,0.09 -0.58,0.09 -0.43,0.07 -0.51,0.06 H 19 l -0.41,0.05 V 27 24.36 l 0.51,-0.05 c 0.28,0 0.54,-0.05 0.81,-0.09 l 0.4,-0.05 0.42,-0.07 v 0 h 0.15 0.12 0.3 0.12 a 1.4,1.4 0 0 0 1.1,0.35 1.34,1.34 0 0 0 0.94,-0.77 v 0 a 16.07,16.07 0 0 0 3.08,-1.14 9.15,9.15 0 0 0 2.28,-1.54 2.29,2.29 0 0 1 0.32,1.11 2.55,2.55 0 0 1 -0.63,1.4 z m 0,-3.78 a 7.26,7.26 0 0 1 -2.39,1.76 15.43,15.43 0 0 1 -2.37,0.91 9.66,9.66 0 0 0 0,-1.08 c 0,-0.29 0,-0.56 0,-0.8 a 1,1 0 0 1 0.27,-0.68 c 0.06,0 0.08,0 0.1,0 0.02,0 0.22,0.16 0.33,0.28 l 0.13,0.13 a 1.75,1.75 0 0 0 2.34,0.34 2,2 0 0 0 0.52,-1.56 2.71,2.71 0 0 1 0.07,-0.72 2.47,2.47 0 0 1 1,-1.08 l 0.3,-0.22 a 2.32,2.32 0 0 1 0.34,1.17 2.58,2.58 0 0 1 -0.64,1.58 z m 1,0.3 a 3.37,3.37 0 0 0 0.63,-1.9 3.28,3.28 0 0 0 -0.6,-1.85 0.34,0.34 0 0 0 0.08,-0.09 2.74,2.74 0 0 0 0.51,-1.87 A 3.36,3.36 0 0 0 29.75,13 5.83,5.83 0 0 0 27.64,10.79 15.55,15.55 0 0 0 21.49,8.54 3.77,3.77 0 0 0 20.49,7.3 5,5 0 0 0 21.65,6.54 6.41,6.41 0 0 0 23.47,2.54 0.44,0.44 0 0 0 23.35,2.19 0.46,0.46 0 0 0 23,2.07 6.41,6.41 0 0 0 18.89,3.48 l -0.2,0.2 A 4.08,4.08 0 0 0 18.32,2.53 5.64,5.64 0 0 0 15.44,0 0.44,0.44 0 0 0 15.07,0 0.41,0.41 0 0 0 14.82,0.29 6.44,6.44 0 0 0 14.58,2.02 c 0,0.14 0,0.29 0,0.45 a 4.1,4.1 0 0 0 0.08,0.57 3.72,3.72 0 0 0 -1.87,0.55 3.35,3.35 0 0 0 -0.8,0.65 3.74,3.74 0 0 0 -1,2.6 3.94,3.94 0 0 0 0.07,0.69 3.71,3.71 0 0 0 -1.17,1.14 21.91,21.91 0 0 0 -3.51,1 8.78,8.78 0 0 0 -3,1.82 4.14,4.14 0 0 0 -1.38,3.14 3.34,3.34 0 0 0 0.53,1.6 3.33,3.33 0 0 0 -0.64,1.9 3.4,3.4 0 0 0 0.63,1.87 3.37,3.37 0 0 0 -0.63,1.89 3.42,3.42 0 0 0 0.63,1.9 3.34,3.34 0 0 0 -0.63,1.88 C 1.89,29.23 8.08,32 16,32 23.92,32 30.11,29.23 30.11,25.7 A 3.31,3.31 0 0 0 29.48,23.82 3.42,3.42 0 0 0 30.11,21.92 3.37,3.37 0 0 0 29.48,20 Z M 15.24,7.69 A 3.8,3.8 0 0 0 13.05,7 a 3.67,3.67 0 0 0 -1.1,0.17 2.45,2.45 0 0 1 0,-0.27 2.83,2.83 0 0 1 2.83,-2.83 h 0.48 a 2.88,2.88 0 0 1 2.23,2 v 0 a 0.65,0.65 0 0 1 0.05,0.2 1.1,1.1 0 0 1 0,0.16 3.79,3.79 0 0 0 -2.3,1.26 z"
           id="path842" />
        <path
           fill="#51bf9f"
           d="m 14.91,27.23 h -0.05 -0.5 -0.53 -0.26 q -0.36,0 -0.72,-0.06 l -1,-0.11 -0.48,-0.08 A 3.81,3.81 0 0 1 10.9,26.91 l -0.34,-0.07 c -0.34,-0.06 -0.67,-0.12 -1,-0.21 L 9.13,26.52 A 3,3 0 0 1 8.75,26.43 L 8.38,26.32 7.91,26.18 7.55,26 Q 7.1,25.85 6.68,25.67 L 6.51,25.6 H 6.41 6.33 l -0.1,-0.05 a 0.2,0.2 0 0 1 -0.08,0 v 0 L 5.89,25.42 5.56,25.25 5.27,25.09 C 5.07,24.98 4.89,24.85 4.71,24.73 L 4.5,24.59 4.21,24.35 A 2.45,2.45 0 0 1 4,24 0.42,0.42 0 0 1 3.87,23.89 2.91,2.91 0 0 1 3.53,23.51 2.53,2.53 0 0 1 2.88,21.92 2.21,2.21 0 0 1 3.2,20.81 v 0 l 0.4,0.36 0.1,0.07 a 3.36,3.36 0 0 0 0.43,0.31 l 0.07,0.06 c 0.16,0.11 0.34,0.22 0.53,0.33 l 0.13,0.07 c 0.19,0.11 0.39,0.22 0.6,0.32 a 18,18 0 0 0 4.47,1.47 1.81,1.81 0 0 0 1.46,1 v 0 a 1.67,1.67 0 0 0 1.21,-0.56 h 0.21 0.45 0.48 l 0.71,0.05 h 0.24 c 0,0.93 0.1,1.81 0.16,2.64 0.05,0.16 0.05,0.23 0.06,0.3 z M 29.15,21.92 A 2.55,2.55 0 0 1 28.51,23.51 6.48,6.48 0 0 1 26.68,25 l -0.29,0.17 -0.32,0.15 -0.69,0.32 -0.37,0.14 a 14.4,14.4 0 0 1 -1.45,0.5 l -0.39,0.1 a 1.69,1.69 0 0 1 -0.34,0.09 c -0.42,0.12 -0.88,0.22 -1.36,0.31 l -0.55,0.09 -0.58,0.09 -0.43,0.07 -0.51,0.06 H 19 l -0.41,0.05 V 27 24.36 l 0.51,-0.05 c 0.28,0 0.54,-0.05 0.81,-0.09 l 0.4,-0.05 0.42,-0.07 v 0 h 0.15 0.12 0.3 0.12 a 1.4,1.4 0 0 0 1.1,0.35 1.34,1.34 0 0 0 0.94,-0.77 v 0 a 16.07,16.07 0 0 0 3.08,-1.14 9.15,9.15 0 0 0 2.28,-1.54 2.29,2.29 0 0 1 0.33,0.92 z"
           id="path844" />
        <path
           fill="#3da580"
           d="M 29.15,21.92 A 2.55,2.55 0 0 1 28.51,23.51 6.48,6.48 0 0 1 26.68,25 l -0.29,0.17 -0.32,0.15 -0.69,0.32 -0.37,0.14 a 14.4,14.4 0 0 1 -1.45,0.5 l -0.39,0.1 a 1.69,1.69 0 0 1 -0.34,0.09 c -0.42,0.12 -0.88,0.22 -1.36,0.31 l -0.55,0.09 -0.58,0.09 -0.43,0.07 -0.51,0.06 H 19 l -0.41,0.05 v -0.5 l 0.75,-0.08 0.51,-0.06 0.42,-0.06 a 5,5 0 0 0 0.56,-0.09 l 0.55,-0.1 c 0.47,-0.08 0.92,-0.18 1.34,-0.29 l 0.34,-0.09 0.36,-0.1 a 13.27,13.27 0 0 0 1.42,-0.49 2.92,2.92 0 0 0 0.34,-0.13 c 0.25,-0.1 0.47,-0.21 0.66,-0.3 l 0.32,-0.16 0.27,-0.16 a 5.8,5.8 0 0 0 1.69,-1.34 2,2 0 0 0 0.53,-1.27 c 0,-0.06 -0.1,-0.49 -0.17,-0.8 l 0.35,-0.31 a 2.29,2.29 0 0 1 0.32,1.11 z"
           id="path846" />
        <path
           fill="#f26e61"
           d="m 29.15,25.7 c 0,2.89 -6,5.33 -13.15,5.33 -7.15,0 -13.15,-2.44 -13.15,-5.33 a 2.24,2.24 0 0 1 0.32,-1.11 l 0.06,0.05 v 0 a 0.29,0.29 0 0 1 0.08,0.07 l 0.24,0.2 c 0.1,0.09 0.21,0.17 0.3,0.24 v 0 l 0.21,0.15 c 0.2,0.14 0.4,0.27 0.62,0.4 a 2.19,2.19 0 0 0 0.33,0.18 2,2 0 0 0 0.36,0.18 2.15,2.15 0 0 0 0.26,0.14 l 0.13,0.06 0.13,0.06 h 0.06 l 0.15,0.06 0.16,0.07 c 0.29,0.13 0.61,0.25 0.92,0.36 l 0.4,0.13 c 0.16,0.06 0.32,0.1 0.49,0.15 l 0.39,0.11 a 3.25,3.25 0 0 0 0.42,0.11 l 0.43,0.11 1.06,0.22 0.34,0.06 a 4.53,4.53 0 0 0 0.49,0.08 4.44,4.44 0 0 0 0.49,0.07 c 0.34,0.06 0.68,0.09 1,0.13 l 0.75,0.06 h 0.26 v 0 h 0.55 0.5 0.25 a 2.34,2.34 0 0 0 0.18,0.48 1.77,1.77 0 0 0 1.22,0.94 1.86,1.86 0 0 0 0.34,0 1.49,1.49 0 0 0 1,-0.34 2.17,2.17 0 0 0 0.72,-1.21 h 0.19 0.47 0.37 L 20,28 l 0.46,-0.07 0.59,-0.08 0.59,-0.11 c 0.5,-0.1 1,-0.2 1.41,-0.31 l 0.37,-0.11 0.39,-0.1 c 0.55,-0.16 1.07,-0.34 1.53,-0.52 a 2.87,2.87 0 0 0 0.39,-0.16 l 0.74,-0.33 0.34,-0.17 v 0 l 0.33,-0.18 c 0.21,-0.12 0.4,-0.24 0.58,-0.36 a 0.72,0.72 0 0 0 0.15,-0.11 l 0.38,-0.27 0.14,-0.11 a 4.89,4.89 0 0 0 0.41,-0.37 2.21,2.21 0 0 1 0.35,1.06 z M 9.6,22.76 A 17.67,17.67 0 0 1 5.89,21.49 6.94,6.94 0 0 1 3.5,19.72 2.49,2.49 0 0 1 2.85,18.13 2.25,2.25 0 0 1 3.19,17 l 0.21,0.18 0.17,0.14 a 3.07,3.07 0 0 1 1.2,1.33 4.66,4.66 0 0 1 0.11,0.52 1.87,1.87 0 0 0 0.69,1.43 1.79,1.79 0 0 0 2,-0.25 l 0.17,-0.12 a 1.78,1.78 0 0 1 1,-0.46 c 0.43,0 0.76,0.56 0.83,1.06 a 6.17,6.17 0 0 1 0,1 c 0,0.27 0.01,0.6 0.03,0.93 z m 5.08,0.66 h -0.18 -0.66 -0.45 -0.2 c 0.05,-0.14 0.09,-0.28 0.13,-0.41 0.04,-0.13 0.08,-0.54 0.11,-0.8 a 3.88,3.88 0 0 1 0.31,-1.29 0.64,0.64 0 0 1 0.27,-0.29 c 0.14,0 0.35,0.1 0.46,0.29 a 2.55,2.55 0 0 1 0.16,1 c 0.01,0.45 0.04,0.97 0.05,1.5 z m 5.96,-0.32 h -0.05 l -0.38,0.06 H 19.82 L 19,23.25 h -0.37 v -0.89 a 3.26,3.26 0 0 1 0.12,-1 0.75,0.75 0 0 1 0.49,-0.47 c 0.41,0 0.74,0.57 0.91,1.19 a 3.75,3.75 0 0 0 0.49,1.02 z m 8.51,-4.97 a 2.58,2.58 0 0 1 -0.64,1.6 7.26,7.26 0 0 1 -2.39,1.76 15.43,15.43 0 0 1 -2.37,0.91 9.66,9.66 0 0 0 0,-1.08 c 0,-0.29 0,-0.56 0,-0.8 a 1,1 0 0 1 0.27,-0.68 c 0.06,0 0.08,0 0.1,0 0.02,0 0.22,0.16 0.33,0.28 l 0.13,0.13 a 1.75,1.75 0 0 0 2.34,0.34 2,2 0 0 0 0.52,-1.59 2.71,2.71 0 0 1 0.07,-0.72 2.47,2.47 0 0 1 1,-1.08 l 0.3,-0.22 a 2.32,2.32 0 0 1 0.34,1.15 z"
           id="path848" />
        <path
           fill="#51bf9f"
           d="M 17.83,4.67 A 3.69,3.69 0 0 0 15.7,3.22 5,5 0 0 1 15.62,1.17 4.56,4.56 0 0 1 17.49,3 4,4 0 0 1 17.83,4.67 Z m 4.62,-1.6 A 5.17,5.17 0 0 1 21,5.82 4.22,4.22 0 0 1 19.45,6.68 3.92,3.92 0 0 0 18.5,6.43 c 0,-0.11 0,-0.23 -0.05,-0.34 v 0 c 0,0 0,-0.09 0,-0.14 a 5.11,5.11 0 0 1 0.29,-0.63 4.33,4.33 0 0 1 0.84,-1.11 5.16,5.16 0 0 1 2.87,-1.14 z"
           id="path850" />
        <path
           fill="#3da580"
           d="M 17.83,4.67 A 3.19,3.19 0 0 0 17.46,4.23 L 17.37,3.67 A 2.66,2.66 0 0 0 17.17,3.11 3.69,3.69 0 0 0 15.91,1.75 8.47,8.47 0 0 0 16,3.3 1.57,1.57 0 0 0 15.71,3.22 5,5 0 0 1 15.63,1.17 4.56,4.56 0 0 1 17.49,3 4,4 0 0 1 17.83,4.67 Z m 4.63,-1.6 A 5.1,5.1 0 0 1 21,5.88 a 4.48,4.48 0 0 1 -1.33,0.75 0.29,0.29 0 0 1 -0.16,0 h -0.1 L 19,6.53 a 6,6 0 0 0 1.8,-1 4.19,4.19 0 0 0 1.16,-2 4.18,4.18 0 0 0 -2.53,1.35 9.8,9.8 0 0 0 -0.91,1.61 c 0,-0.12 -0.05,-0.24 -0.08,-0.36 a 0.51,0.51 0 0 1 0.05,-0.32 6.36,6.36 0 0 1 0.28,-0.59 4.18,4.18 0 0 1 0.82,-1 5.08,5.08 0 0 1 2.87,-1.15 z"
           id="path852" />
        <path
           fill="#f26e61"
           d="M 19.27,7.64 A 2.69,2.69 0 0 0 18.08,7.38 h -0.35 a 2.84,2.84 0 0 0 -2,1.25 2.84,2.84 0 1 0 3.55,-1 z M 18.76,9 A 0.47,0.47 0 0 1 18.42,9.13 0.45,0.45 0 0 1 18.08,9 0.49,0.49 0 0 1 17.4,9 a 0.48,0.48 0 0 1 0,-0.69 0.9,0.9 0 0 1 1.38,0 A 0.49,0.49 0 0 1 18.76,9 Z m -4.48,1.21 a 3.69,3.69 0 0 1 0.41,-1.71 2.83,2.83 0 1 0 -1.64,5.13 2.81,2.81 0 0 0 2.12,-1 3.84,3.84 0 0 1 -0.89,-2.42 z M 13.45,9.5 A 0.51,0.51 0 0 1 13.11,9.63 0.46,0.46 0 0 1 12.77,9.48 0.4808846,0.4808846 0 1 1 12.08,8.81 0.93,0.93 0 0 1 12.77,8.48 1,1 0 0 1 13.46,8.81 0.48,0.48 0 0 1 13.45,9.5 Z M 17.53,6.28 A 0.65,0.65 0 0 0 17.48,6.08 V 6 A 2.88,2.88 0 0 0 15.25,4.05 h -0.48 a 2.83,2.83 0 0 0 -2.83,2.83 2.45,2.45 0 0 0 0,0.27 A 3.67,3.67 0 0 1 13.05,7 3.8,3.8 0 0 1 15.24,7.7 3.79,3.79 0 0 1 17.56,6.45 1.1,1.1 0 0 0 17.53,6.28 Z M 15.44,5.51 A 0.44,0.44 0 0 1 15.11,5.66 0.53,0.53 0 0 1 14.76,5.51 0.48438105,0.48438105 0 0 1 14.07,4.83 1,1 0 0 1 14.76,4.5 v 0 a 1,1 0 0 1 0.69,0.33 0.46,0.46 0 0 1 -0.01,0.68 z"
           id="path854" />
        <path
           fill="#2b2e63"
           d="M 15.44,5.51 A 0.44,0.44 0 0 1 15.11,5.66 0.53,0.53 0 0 1 14.76,5.51 0.48438105,0.48438105 0 0 1 14.07,4.83 1,1 0 0 1 14.76,4.5 v 0 a 1,1 0 0 1 0.69,0.33 0.46,0.46 0 0 1 -0.01,0.68 z"
           id="path856" />
        <path
           fill="#e15e5a"
           d="M 19.27,7.64 A 2.69,2.69 0 0 0 18.08,7.38 h -0.35 a 2.84,2.84 0 0 0 -2,1.25 2.84,2.84 0 1 0 3.55,-1 z m -1.19,4.9 a 2.34,2.34 0 0 1 -1.6,-0.63 2.34,2.34 0 0 1 1.32,-4 h 0.28 a 2.22,2.22 0 0 1 1,0.21 2.33,2.33 0 0 1 -1,4.45 z"
           id="path858" />
        <path
           fill="#f26e61"
           d="m 20.42,10.21 a 2.34,2.34 0 0 1 -3.94,1.7 2.34,2.34 0 0 1 1.32,-4 h 0.28 a 2.22,2.22 0 0 1 1,0.21 2.33,2.33 0 0 1 1.34,2.09 z"
           id="path860" />
        <path
           fill="#e15e5a"
           d="m 15.17,12.66 a 2.81,2.81 0 0 1 -2.12,1 2.85,2.85 0 0 1 -2.84,-2.84 2.83,2.83 0 0 1 4.48,-2.32 3.45,3.45 0 0 0 -0.2,0.48 2,2 0 0 0 -0.47,-0.3 2.16,2.16 0 0 0 -1,-0.21 H 12.7 12.52 v 0 a 2.31,2.31 0 0 0 -1.79,2.28 2.32,2.32 0 0 0 2.27,2.38 2.35,2.35 0 0 0 1.84,-0.9 3.23,3.23 0 0 0 0.33,0.43 z m 2.39,-6.22 -0.48,0.1 A 2.31,2.31 0 0 0 15.75,4.77 2.05,2.05 0 0 0 15.11,4.58 0.83,0.83 0 0 0 14.76,4.5 v 0 a 0.82,0.82 0 0 0 -0.34,0.08 2.3,2.3 0 0 0 -1.59,1 2.39,2.39 0 0 0 -0.39,1.3 V 7 a 3.89,3.89 0 0 0 -0.49,0.12 2.45,2.45 0 0 1 0,-0.27 2.83,2.83 0 0 1 2.83,-2.83 h 0.48 a 2.88,2.88 0 0 1 2.23,2 v 0 a 0.65,0.65 0 0 1 0.05,0.2 1.1,1.1 0 0 1 0.02,0.22 z"
           id="path862" />
        <path
           fill="#ffdc7c"
           d="m 28.81,15.62 -0.23,0.27 v 0 0 C 28.4,16.05 28.2,16.2 27.97,16.37 A 3.27,3.27 0 0 0 26.58,18 4,4 0 0 0 26.47,19 c 0,0.46 0,0.74 -0.21,0.89 -0.21,0.15 -0.72,0 -1,-0.28 l -0.09,-0.12 a 1.69,1.69 0 0 0 -0.88,-0.58 1.09,1.09 0 0 0 -0.87,0.22 2,2 0 0 0 -0.66,1.4 c 0,0.29 0,0.59 0,0.89 a 4.06,4.06 0 0 1 -0.1,1.54 1.3,1.3 0 0 1 -0.08,0.17 c -0.08,0.15 -0.17,0.25 -0.25,0.26 -0.08,0.01 -0.25,-0.05 -0.49,-0.27 a 3.37,3.37 0 0 1 -0.76,-1.19 c -0.34,-1.28 -1.07,-2 -1.93,-1.9 a 1.63,1.63 0 0 0 -1.3,1.08 3.83,3.83 0 0 0 -0.19,1.38 V 27 A 2,2 0 0 1 17.18,28.61 0.57,0.57 0 0 1 16.7,28.72 0.83,0.83 0 0 1 16.14,28.3 3.55,3.55 0 0 1 15.85,27 c -0.07,-1 -0.12,-2 -0.18,-3.06 0,-0.71 -0.06,-1.4 -0.07,-2.09 A 3.09,3.09 0 0 0 15.32,20.4 1.4,1.4 0 0 0 13.7,19.64 1.54,1.54 0 0 0 12.89,20.39 4.24,4.24 0 0 0 12.47,22 4.88,4.88 0 0 1 12.36,22.7 c -0.11,0.56 -0.48,1.17 -0.94,1.13 -0.46,-0.04 -0.76,-0.54 -0.84,-1 a 5,5 0 0 1 0,-1 6.27,6.27 0 0 0 0,-1.14 A 2.06,2.06 0 0 0 8.82,18.8 2.61,2.61 0 0 0 7.27,19.44 L 7.12,19.55 C 6.81,19.77 6.4,19.94 6.18,19.79 5.96,19.64 5.97,19.43 5.9,19.01 A 4.34,4.34 0 0 0 5.76,18.35 4,4 0 0 0 4.24,16.54 L 4,16.41 A 2.45,2.45 0 0 1 3,14.57 3.17,3.17 0 0 1 4,12.2 8.06,8.06 0 0 1 6.72,10.59 22.64,22.64 0 0 1 9.37,9.78 a 3.73,3.73 0 0 0 -0.14,1 3.81,3.81 0 0 0 6.65,2.53 3.87,3.87 0 0 0 2.19,0.69 3.81,3.81 0 0 0 3.81,-3.8 4.48,4.48 0 0 0 -0.06,-0.63 14.36,14.36 0 0 1 5.27,2 4.78,4.78 0 0 1 1.78,1.83 2.86,2.86 0 0 1 0.26,1 1.91,1.91 0 0 1 -0.32,1.22 z"
           id="path864" />
        <path
           fill="#3da580"
           d="m 14.91,27.23 h -0.05 -0.5 -0.53 -0.26 q -0.36,0 -0.72,-0.06 l -1,-0.11 -0.48,-0.08 A 3.81,3.81 0 0 1 10.9,26.91 l -0.34,-0.07 c -0.34,-0.06 -0.67,-0.12 -1,-0.21 L 9.13,26.52 A 3,3 0 0 1 8.75,26.43 L 8.38,26.32 7.91,26.18 7.55,26 Q 7.1,25.85 6.68,25.67 L 6.51,25.6 H 6.41 6.33 l -0.1,-0.05 a 0.2,0.2 0 0 1 -0.08,0 v 0 L 5.89,25.42 5.56,25.25 5.27,25.09 C 5.07,24.98 4.89,24.85 4.71,24.73 L 4.5,24.59 4.21,24.35 A 2.45,2.45 0 0 1 4,24 0.42,0.42 0 0 1 3.87,23.89 2.91,2.91 0 0 1 3.53,23.51 2.53,2.53 0 0 1 2.88,21.92 2.21,2.21 0 0 1 3.2,20.81 v 0 l 0.32,0.28 c -0.07,0.3 -0.17,0.74 -0.17,0.81 a 2.05,2.05 0 0 0 0.54,1.28 3.19,3.19 0 0 0 0.32,0.35 l 0.09,0.08 a 2.16,2.16 0 0 0 0.19,0.16 l 0.06,0.06 0.2,0.15 0.2,0.14 a 6.22,6.22 0 0 0 0.54,0.35 l 0.27,0.15 0.32,0.17 0.23,0.11 v 0 l 0.15,0.07 0.12,0.06 0.28,0.11 c 0.2,0.08 0.51,0.21 0.85,0.33 l 0.37,0.12 0.34,0.1 H 8.53 L 8.89,25.8 9.26,25.89 9.67,26 c 0.34,0.08 0.66,0.14 1,0.2 l 0.35,0.07 0.44,0.07 h 0.11 0.37 c 0.31,0.05 0.63,0.08 1,0.12 l 0.75,0.06 h 0.18 0.08 0.95 v 0.34 c 0,0.23 0,0.3 0.01,0.37 z"
           id="path866" />
        <path
           fill="#e15e5a"
           d="m 29.15,25.7 c 0,2.89 -6,5.33 -13.15,5.33 -7.15,0 -13.15,-2.44 -13.15,-5.33 a 2.24,2.24 0 0 1 0.32,-1.11 l 0.06,0.05 v 0 a 0.29,0.29 0 0 1 0.08,0.07 l 0.17,0.15 c -0.07,0.3 -0.15,0.75 -0.15,0.81 0,2.28 5.2,4.83 12.65,4.83 7.45,0 12.67,-2.5 12.67,-4.8 a 1.24,1.24 0 0 0 0,-0.27 c 0,0 -0.08,-0.26 -0.15,-0.51 l 0.36,-0.33 a 2.21,2.21 0 0 1 0.29,1.11 z"
           id="path868" />
        <path
           fill="#ecc25d"
           d="m 28.81,15.62 -0.23,0.27 v 0 0 C 28.4,16.05 28.2,16.2 27.97,16.37 A 3.27,3.27 0 0 0 26.58,18 4,4 0 0 0 26.47,19 c 0,0.46 0,0.74 -0.21,0.89 -0.21,0.15 -0.72,0 -1,-0.28 l -0.09,-0.12 a 1.69,1.69 0 0 0 -0.88,-0.58 1.09,1.09 0 0 0 -0.87,0.22 2,2 0 0 0 -0.66,1.4 c 0,0.29 0,0.59 0,0.89 a 4.06,4.06 0 0 1 -0.1,1.54 1.3,1.3 0 0 1 -0.08,0.17 c -0.08,0.15 -0.17,0.25 -0.25,0.26 -0.08,0.01 -0.25,-0.05 -0.49,-0.27 a 3.37,3.37 0 0 1 -0.76,-1.19 c -0.34,-1.28 -1.07,-2 -1.93,-1.9 a 1.63,1.63 0 0 0 -1.3,1.08 3.83,3.83 0 0 0 -0.19,1.38 V 27 A 2,2 0 0 1 17.18,28.61 0.57,0.57 0 0 1 16.7,28.72 0.83,0.83 0 0 1 16.14,28.3 3.55,3.55 0 0 1 15.85,27 c -0.07,-1 -0.12,-2 -0.18,-3.06 0,-0.71 -0.06,-1.4 -0.07,-2.09 A 3.09,3.09 0 0 0 15.32,20.4 1.4,1.4 0 0 0 13.7,19.64 1.54,1.54 0 0 0 12.89,20.39 4.24,4.24 0 0 0 12.47,22 4.88,4.88 0 0 1 12.36,22.7 c -0.11,0.56 -0.48,1.17 -0.94,1.13 -0.46,-0.04 -0.76,-0.54 -0.84,-1 a 5,5 0 0 1 0,-1 6.27,6.27 0 0 0 0,-1.14 A 2.06,2.06 0 0 0 8.82,18.8 2.61,2.61 0 0 0 7.27,19.44 L 7.12,19.55 C 6.81,19.77 6.4,19.94 6.18,19.79 5.96,19.64 5.97,19.43 5.9,19.01 A 4.34,4.34 0 0 0 5.76,18.35 4,4 0 0 0 4.24,16.54 L 4,16.41 A 2.45,2.45 0 0 1 3,14.57 3.17,3.17 0 0 1 4,12.2 8.06,8.06 0 0 1 6.72,10.59 22.64,22.64 0 0 1 9.37,9.78 4.69,4.69 0 0 0 9.26,10.32 L 8.74,10.45 C 8.12,10.63 7.5,10.83 6.9,11.06 a 7.4,7.4 0 0 0 -2.55,1.5 2.62,2.62 0 0 0 -0.88,2 A 2,2 0 0 0 4.3,16 l 0.18,0.13 a 4.4,4.4 0 0 1 1.69,2.05 5,5 0 0 1 0.16,0.74 2.92,2.92 0 0 0 0.07,0.39 1.16,1.16 0 0 0 0.35,-0.18 L 7,19 A 3,3 0 0 1 8.72,18.31 H 8.8 a 2.56,2.56 0 0 1 2.2,2.3 6.33,6.33 0 0 1 0.05,1.22 4.17,4.17 0 0 0 0,0.88 c 0.05,0.37 0.27,0.62 0.37,0.62 0.1,0 0.32,-0.26 0.43,-0.74 0,-0.18 0.06,-0.37 0.09,-0.59 v -0.07 a 4.83,4.83 0 0 1 0.46,-1.81 2,2 0 0 1 1.11,-1 1.53,1.53 0 0 1 0.52,-0.08 2,2 0 0 1 1.69,1.07 3.49,3.49 0 0 1 0.34,1.68 c 0,0.69 0,1.37 0.07,2.07 0.06,1.09 0.11,2.11 0.18,3.05 a 3,3 0 0 0 0.26,1.09 0.26,0.26 0 0 0 0.19,0.16 h 0.07 c 0.26,-0.2 0.29,-0.74 0.3,-1.23 v -4.51 a 4.21,4.21 0 0 1 0.23,-1.56 2.14,2.14 0 0 1 1.7,-1.39 h 0.2 c 1,0 1.89,0.85 2.28,2.28 a 2.81,2.81 0 0 0 0.61,0.95 v 0 a 3.71,3.71 0 0 0 0.07,-1.33 v -0.1 a 7.73,7.73 0 0 1 0,-0.84 2.54,2.54 0 0 1 0.84,-1.77 1.67,1.67 0 0 1 1,-0.34 1.43,1.43 0 0 1 0.29,0 2,2 0 0 1 1.15,0.74 l 0.1,0.1 a 0.63,0.63 0 0 0 0.32,0.2 4,4 0 0 0 0,-0.48 v -0.05 a 4.4,4.4 0 0 1 0.13,-1 3.59,3.59 0 0 1 1.59,-1.83 l 0.51,-0.41 0.06,-0.11 h 0.09 a 0.69,0.69 0 0 0 0.11,-0.13 1.36,1.36 0 0 0 0.23,-0.91 2.11,2.11 0 0 0 -0.21,-0.76 4.38,4.38 0 0 0 -1.6,-1.68 13.46,13.46 0 0 0 -4.44,-1.8 l -0.51,-0.09 a 4.71,4.71 0 0 0 -0.05,-0.54 14.36,14.36 0 0 1 5.27,2 4.78,4.78 0 0 1 1.78,1.83 2.86,2.86 0 0 1 0.26,1 1.91,1.91 0 0 1 -0.33,1.22 z"
           id="path870" />
        <path
           fill="#2b2e63"
           d="M 18.76,9 A 0.47,0.47 0 0 1 18.42,9.13 0.45,0.45 0 0 1 18.08,9 0.49,0.49 0 0 1 17.4,9 a 0.48,0.48 0 0 1 0,-0.69 0.9,0.9 0 0 1 1.38,0 A 0.49,0.49 0 0 1 18.76,9 Z M 13.45,9.5 A 0.51,0.51 0 0 1 13.11,9.63 0.46,0.46 0 0 1 12.77,9.48 0.4808846,0.4808846 0 1 1 12.08,8.81 0.93,0.93 0 0 1 12.77,8.48 1,1 0 0 1 13.46,8.81 0.48,0.48 0 0 1 13.45,9.5 Z"
           id="path872" />
      </g>
    </g>
  </g>
</svg>
