<?xml version="1.0" encoding="UTF-8" standalone="no"?>
<svg
   xmlns:dc="http://purl.org/dc/elements/1.1/"
   xmlns:cc="http://creativecommons.org/ns#"
   xmlns:rdf="http://www.w3.org/1999/02/22-rdf-syntax-ns#"
   xmlns:svg="http://www.w3.org/2000/svg"
   xmlns="http://www.w3.org/2000/svg"
   width="750"
   height="750"
   viewBox="0 0 198.43749 198.43751"
   version="1.1"
   id="svg8">
  <defs
     id="defs2">
    <linearGradient
       id="a"
       x1="256"
       x2="256"
       y2="512"
       gradientUnits="userSpaceOnUse"
       y1="0">
      <stop
         offset="0"
         stop-color="#ffb508"
         id="stop961" />
      <stop
         offset="1"
         stop-color="#fc2a02"
         id="stop963" />
    </linearGradient>
  </defs>
  <metadata
     id="metadata5">
    <rdf:RDF>
      <cc:Work
         rdf:about="">
        <dc:format>image/svg+xml</dc:format>
        <dc:type
           rdf:resource="http://purl.org/dc/dcmitype/StillImage" />
        <dc:title></dc:title>
      </cc:Work>
    </rdf:RDF>
  </metadata>
  <g
     id="layer1"
     transform="translate(-4.6769273,33.072914)">
    <circle
       style="fill:#2c2c2c;fill-opacity:1;fill-rule:evenodd;stroke:#ffffff;stroke-width:7.64378;stroke-linecap:round;stroke-miterlimit:4;stroke-dasharray:none;stroke-opacity:1"
       id="path833"
       cx="66.145836"
       cy="66.145836"
       r="52.582867" />
    <path
       style="fill:none;fill-rule:evenodd;stroke:#ffffff;stroke-width:7;stroke-linecap:round;stroke-miterlimit:4;stroke-dasharray:none;stroke-opacity:1"
       id="path835"
       d="m 85.2327,84.425545 -19.086864,-2e-6 -19.086864,2e-6 9.543434,-16.529708 9.54343,-16.52971 9.54343,16.52971 z" />
    <path
       id="path837"
       style="fill:none;fill-opacity:1;fill-rule:evenodd;stroke:#89daff;stroke-width:7;stroke-linecap:round;stroke-miterlimit:4;stroke-dasharray:none;stroke-opacity:1"
       d="m 60.732422,70.269531 c -1.80599,3.131383 -3.616211,6.261632 -5.423828,9.392578 7.225911,0 14.451823,0 21.677734,0 -3.613281,-6.25651 -7.226562,-12.51302 -10.839844,-18.769531 -1.804687,3.125651 -3.609375,6.251302 -5.414062,9.376953 z" />
  </g>
  <g
     transform="matrix(0.21961009,0,0,0.21961009,-3204.7293,-835.6614)"
     id="g982">
    <circle
       cx="256"
       cy="256"
       r="256"
       fill="url(#a)"
       data-name="Ellipse 22-2"
       id="circle968"
       style="fill:url(#a)"
       transform="translate(14960,4001)" />
    <g
       transform="translate(12886,402.909)"
       id="g980">
      <path
         fill="#ffffff"
         d="m 2264.252,3826.919 65.555,-65.528 65.582,65.582 38.123,-38.15 -103.705,-103.732 -103.7,103.7 z"
         data-name="Path 323"
         id="path970" />
      <path
         fill="#ffffff"
         d="m 2161,3853.872 38.123,-38.15 38.15,38.15 -38.15,38.128 z"
         data-name="Path 324"
         id="path972" />
      <path
         fill="#ffffff"
         d="m 2264.252,3880.8 65.556,65.556 65.582,-65.583 38.15,38.1 L 2329.834,4022.6 2226.1,3918.948 Z"
         data-name="Path 325"
         id="path974" />
      <path
         fill="#ffffff"
         d="m 2422.263,3853.872 38.123,-38.15 38.15,38.123 -38.15,38.177 z"
         data-name="Path 326"
         id="path976" />
      <path
         fill="#ffffff"
         d="m 2368.491,3853.846 -38.683,-38.71 -28.606,28.606 -3.306,3.279 -6.771,6.771 38.683,38.656 38.683,-38.576 z"
         data-name="Path 327"
         id="path978" />
    </g>
  </g>
</svg>
